<svg xmlns="http://www.w3.org/2000/svg" width="24" height="24" viewBox="0 0 24 24" fill="#FFFFFF">
  <path d="M12 .297C5.638.297.297 5.638.297 12c0 5.26 3.42 9.732 8.17 11.306.6.11.82-.255.82-.57 0-.285-.01-1.04-.015-2.04-3.338.72-4.042-1.61-4.042-1.61-.546-1.387-1.333-1.756-1.333-1.756-1.09-.746.084-.73.084-.73 1.205.084 1.838 1.236 1.838 1.236 1.07 1.835 2.809 1.305 3.495.997.108-.776.42-1.305.763-1.605-2.665-.305-5.466-1.332-5.466-5.93 0-1.31.465-2.38 1.236-3.22-.12-.303-.54-1.523.104-3.176 0 0 1.005-.322 3.3 1.23.96-.267 1.98-.399 3-.405 1.02.006 2.04.138 3 .405 2.28-1.552 3.285-1.23 3.285-1.23.645 1.653.225 2.873.105 3.176.765.84 1.236 1.91 1.236 3.22 0 4.61-2.805 5.625-5.475 5.92.42.36.81 1.096.81 2.22 0 1.605-.015 2.895-.015 3.285 0 .315.21.685.825.57 4.746-1.574 8.16-6.046 8.16-11.306C23.703 5.638 18.362.297 12 .297z"/>
</svg>
